<?xml version="1.0" encoding="UTF-8"?>
<svg xmlns="http://www.w3.org/2000/svg" xmlns:xlink="http://www.w3.org/1999/xlink" width="150px" height="99px" viewBox="0 0 150 99" version="1.1">
<g id="surface1">
<path style=" stroke:none;fill-rule:nonzero;fill:rgb(0%,0%,0%);fill-opacity:1;" d="M 76.449219 5.9375 C 77.128906 3.230469 78.917969 1.492188 81.367188 0.609375 C 83.351562 -0.113281 85.675781 -0.179688 88.085938 0.3125 C 90.179688 0.742188 92.382812 1.617188 94.488281 2.871094 C 100.199219 6.261719 105.542969 12.65625 106.222656 20.648438 C 106.429688 23.109375 106.371094 25.730469 106.078125 28.523438 C 105.882812 30.367188 105.578125 32.304688 105.164062 34.320312 L 129.449219 34.320312 L 129.558594 34.332031 C 133.503906 34.453125 137.324219 35.203125 140.550781 36.515625 C 143.339844 37.65625 145.6875 39.214844 147.320312 41.152344 C 149 43.148438 149.910156 45.523438 149.777344 48.242188 C 149.679688 50.253906 148.988281 52.441406 147.574219 54.769531 C 148.378906 57.390625 148.753906 60.203125 148.230469 62.675781 C 147.792969 64.773438 146.746094 66.636719 144.871094 68.023438 C 144.96875 71.492188 144.375 74.398438 143.179688 76.917969 C 141.949219 79.503906 140.113281 81.648438 137.75 83.550781 C 137.542969 85.210938 137.203125 86.800781 136.667969 88.28125 C 136 90.144531 135.011719 91.855469 133.636719 93.367188 C 129.496094 97.925781 126.1875 97.820312 120.941406 97.652344 C 120.210938 97.632812 119.429688 97.601562 118.214844 97.601562 L 70.703125 97.601562 C 66.429688 97.601562 63.070312 97.117188 60.003906 95.921875 C 56.972656 94.734375 54.378906 92.910156 51.617188 90.210938 L 50.910156 88.632812 L 50.910156 45.398438 L 53.320312 44.894531 C 59.441406 43.605469 64.261719 39.519531 68.011719 34.625 C 71.859375 29.589844 74.5625 23.699219 76.410156 18.9375 L 76.410156 6.421875 Z M 5.078125 40.878906 L 40.476562 40.878906 C 43.15625 40.878906 45.347656 42.585938 45.347656 44.679688 L 45.347656 95.199219 C 45.347656 97.289062 43.15625 99 40.476562 99 L 5.078125 99 C 2.402344 99 0.210938 97.289062 0.210938 95.199219 L 0.210938 44.679688 C 0.210938 42.585938 2.402344 40.878906 5.078125 40.878906 Z M 84.082031 5.207031 C 83.558594 5.398438 83.132812 5.871094 82.875 6.6875 L 82.875 19.289062 L 82.730469 20.011719 C 80.769531 25.113281 77.847656 31.574219 73.539062 37.210938 C 69.484375 42.5 64.226562 47.054688 57.386719 49.152344 L 57.386719 87.742188 C 59.261719 89.480469 60.988281 90.65625 62.886719 91.398438 C 64.980469 92.214844 67.441406 92.539062 70.703125 92.539062 L 118.214844 92.539062 C 119.066406 92.539062 120.160156 92.578125 121.195312 92.605469 C 124.3125 92.699219 126.273438 92.765625 128.378906 90.449219 L 128.378906 90.4375 C 129.292969 89.429688 129.960938 88.242188 130.433594 86.914062 C 130.945312 85.496094 131.25 83.921875 131.398438 82.238281 L 132.394531 80.574219 C 134.488281 79.027344 136.082031 77.289062 137.105469 75.148438 C 138.152344 72.945312 138.601562 70.292969 138.347656 66.96875 L 138.238281 65.46875 L 139.871094 64.679688 C 140.988281 64.136719 141.597656 63.113281 141.851562 61.855469 C 142.265625 59.863281 141.828125 57.417969 141.039062 55.148438 L 141.292969 53.316406 C 142.609375 51.347656 143.242188 49.589844 143.328125 48.050781 C 143.398438 46.453125 142.875 45.066406 141.902344 43.917969 C 140.878906 42.710938 139.382812 41.722656 137.570312 40.980469 C 135.230469 40.023438 132.40625 39.472656 129.460938 39.375 L 129.460938 39.386719 L 97.421875 39.386719 L 98.140625 36.390625 C 98.835938 33.492188 99.332031 30.730469 99.625 28.105469 C 99.90625 25.542969 99.953125 23.15625 99.773438 20.988281 C 99.222656 14.605469 95.035156 9.550781 90.570312 6.898438 C 89.144531 6.050781 87.734375 5.472656 86.453125 5.214844 C 85.46875 5.007812 84.664062 4.996094 84.082031 5.207031 Z M 84.082031 5.207031 "/>
</g>
</svg>
